:SAMPLES-PER-SECOND 30
:FULLY-SPECIFIED
:DEGREES
155
root  12.4388 36.7684 -1.36842 -174.487 -36.5328 163.697
RightUpLeg  -34.3194 19.2145 -28.1214
RightLeg  31.2245 16.051 10.0531
RightFoot  -7.26694 -0.806245 21.0437
RightToes  0.00048216 0.542163 -0.142577
Spine  40.2672 -8.45574 14.1429
Spine1  13.2499 -6.43706 11.1997
HEad  -5.49469 30.0614 -8.75258
LeftShoulder1  9.58411 -14.402 -46.7011
LeftArm  -24.837 14.8147 -21.1547
LeftForeArm  166.877 -80.008 -124.786
LeftHand  -0.25398 0.0180481 5.50724
RightShoulder  5.68849 9.61387 37.3442
RightArm  19.2741 50.0075 33.7766
RightForeArm  25.3096 43.5994 8.93938
RightHand  -0.750709 3.53585 -10.0564
LeftUpLeg  -13.7727 43.342 -10.3712
LeftLeg  44.3915 17.9161 18.273
LeftFoot  -21.6225 -0.170426 -3.33566
LeftToes  1.06241e-005 4.65855e-005 -8.18508e-006
156
root  12.844 37.1151 -1.48623 -173.488 -38.0704 165.319
RightUpLeg  -34.0378 18.7841 -26.6716
RightLeg  27.694 15.2814 8.33728
RightFoot  -6.45892 -0.943422 20.8709
RightToes  0.00048216 0.542163 -0.142577
Spine  40.5519 -8.61952 13.1418
Spine1  13.1921 -6.86087 10.8451
HEad  -3.41121 29.9528 -9.51757
LeftShoulder1  9.53564 -14.4359 -46.3682
LeftArm  -20.3876 10.7828 -22.1215
LeftForeArm  165.411 -80.7213 -119.304
LeftHand  -0.25398 0.0180481 5.50724
RightShoulder  5.51052 9.46975 36.4819
RightArm  16.5966 47.7478 34.0625
RightForeArm  25.0808 42.0948 8.45079
RightHand  -0.820921 3.78925 -10.6729
LeftUpLeg  -15.7911 43.3915 -9.84191
LeftLeg  42.2503 16.8045 16.1017
LeftFoot  -20.4644 -0.086742 -2.62702
LeftToes  1.06241e-005 4.65855e-005 -8.18508e-006
157
root  13.2538 37.3977 -1.64571 -172.756 -40.3741 166.624
RightUpLeg  -33.2492 17.5877 -25.1335
RightLeg  24.8069 14.5849 7.04587
RightFoot  -5.67365 -1.07056 20.6336
RightToes  0.00048216 0.542163 -0.142577
Spine  40.5853 -8.76739 12.0499
Spine1  13.0989 -7.47066 10.6889
HEad  -1.91231 29.9013 -10.2884
LeftShoulder1  9.41194 -14.3691 -45.9243
LeftArm  -16.3733 6.94439 -23.8121
LeftForeArm  146.497 -81.8522 -98.3259
LeftHand  -0.25398 0.0180481 5.50724
RightShoulder  5.40184 9.47843 35.6375
RightArm  14.0502 44.7204 33.7522
RightForeArm  23.3017 41.0095 8.21994
RightHand  -1.04556 4.66466 -12.363
LeftUpLeg  -17.2639 43.1441 -9.0714
LeftLeg  40.3537 15.2686 13.8697
LeftFoot  -19.4663 -0.0295885 -2.06159
LeftToes  1.06241e-005 4.65855e-005 -8.18508e-006
158
root  13.663 37.6303 -1.84059 -172.208 -43.1351 167.724
RightUpLeg  -32.2372 15.7903 -23.5175
RightLeg  22.4796 13.7188 5.96016
RightFoot  -5.00343 -1.16422 20.2092
RightToes  0.00048216 0.542163 -0.142577
Spine  40.2953 -8.90497 11.1484
Spine1  13.1012 -7.99802 10.2734
HEad  -0.948935 29.4861 -10.8246
LeftShoulder1  9.30241 -14.3414 -45.4446
LeftArm  -13.341 3.68229 -25.7986
LeftForeArm  114.919 -81.2232 -66.0076
LeftHand  -0.25398 0.0180481 5.50724
RightShoulder  5.40152 9.61896 35.197
RightArm  11.5205 40.9188 32.8228
RightForeArm  20.1668 40.6064 8.29889
RightHand  -1.37394 5.72422 -14.6702
LeftUpLeg  -18.5514 42.1567 -8.28046
LeftLeg  38.8283 13.8866 12.0841
LeftFoot  -18.4187 0.00707809 -1.67229
LeftToes  1.06241e-005 4.65855e-005 -8.18508e-006
159
root  14.0578 37.8297 -2.07223 -171.914 -45.9531 168.82
RightUpLeg  -31.2202 13.9032 -21.8479
RightLeg  20.6224 12.5641 4.97683
RightFoot  -4.84436 -1.16021 19.6712
RightToes  0.00048216 0.542163 -0.142577
Spine  39.8486 -8.97002 10.4907
Spine1  13.1813 -8.20614 9.38904
HEad  -0.509316 28.639 -11.0471
LeftShoulder1  9.302 -14.4142 -45.2501
LeftArm  -11.3581 1.28465 -27.4327
LeftForeArm  92.1292 -78.3148 -42.7194
LeftHand  -0.25398 0.0180481 5.50724
RightShoulder  5.4339 9.75004 35.0369
RightArm  9.03423 36.5591 32.0248
RightForeArm  18.7442 40.8919 8.48346
RightHand  -1.63074 6.53124 -16.1976
LeftUpLeg  -19.6735 40.7631 -7.37672
LeftLeg  37.5526 12.7909 10.729
LeftFoot  -17.2728 0.0318045 -1.38501
LeftToes  1.06241e-005 4.65855e-005 -8.18508e-006
